<?xml version="1.0" encoding="utf-8"?>
<!-- Generator: Adobe Illustrator 16.0.0, SVG Export Plug-In . SVG Version: 6.00 Build 0)  -->
<!DOCTYPE svg PUBLIC "-//W3C//DTD SVG 1.1//EN" "http://www.w3.org/Graphics/SVG/1.1/DTD/svg11.dtd">
<svg version="1.1" id="Layer_1" xmlns="http://www.w3.org/2000/svg" xmlns:xlink="http://www.w3.org/1999/xlink" x="0px" y="0px"
	 width="127px" height="27px" viewBox="0 0 127 27" enable-background="new 0 0 127 27" xml:space="preserve">
<g>
	<g>
		<g>
			<path fill="#FFFFFF" d="M21.613,9.541l-6.768,3.132L6.043,8.602c-2.227-1.029-3.65-3.259-3.65-5.711V0.652L21.613,9.541z"/>
			<polygon fill="#FFFFFF" points="21.641,15.79 21.641,15.816 21.613,15.804 			"/>
			<path fill="#FFFFFF" d="M21.641,9.529v6.261L2.393,24.691v-2.238c0-2.451,1.424-4.681,3.651-5.711L21.641,9.529z"/>
			<polygon fill="#FFFFFF" points="21.641,9.529 21.641,9.554 21.613,9.541 			"/>
			<path fill="#FFFFFF" d="M21.641,22.982v1.709H9.704l8.477-3.92C19.796,20.024,21.641,21.202,21.641,22.982z"/>
		</g>
		<g>
			<polygon fill="#FFFFFF" points="10.477,12.69 1.036,8.411 3.383,12.69 1.036,16.936 			"/>
			<polygon fill="#FFFFFF" points="10.477,12.69 1.035,16.934 3.382,12.69 			"/>
			<polygon fill="#FFFFFF" points="10.477,12.69 1.035,16.934 3.382,12.69 			"/>
		</g>
		<polygon fill="#FFFFFF" points="15.95,6.922 12.014,11.364 14.845,12.673 21.613,9.541 		"/>
	</g>
	<text transform="matrix(1 0 0 1 23.9868 19.6973)" fill="#FFFFFF" font-family="'Arial-Black'" font-size="15.1486">EVOLVEREN</text>
	<text transform="matrix(1 0 0 1 24.7808 24.9053)" fill="#FFFFFF" font-family="'ArialNarrow'" font-size="4.4183">UNRIVALLED CONSTRUCTION &amp; CONSULTING SERVICES</text>
</g>
</svg>
